<?xml version="1.0" encoding="UTF-8" standalone="no"?>
<!-- Created with Inkscape (http://www.inkscape.org/) -->

<svg
   version="1.1"
   id="svg2"
   width="444.52585"
   height="471.5029"
   viewBox="0 0 444.52585 471.5029"
   sodipodi:docname="HEDI_Logo_2.svg"
   inkscape:version="1.1.2 (0a00cf5339, 2022-02-04)"
   xmlns:inkscape="http://www.inkscape.org/namespaces/inkscape"
   xmlns:sodipodi="http://sodipodi.sourceforge.net/DTD/sodipodi-0.dtd"
   xmlns="http://www.w3.org/2000/svg"
   xmlns:svg="http://www.w3.org/2000/svg"
   xmlns:rdf="http://www.w3.org/1999/02/22-rdf-syntax-ns#"
   xmlns:cc="http://creativecommons.org/ns#"
   xmlns:dc="http://purl.org/dc/elements/1.1/">
  <metadata
     id="metadata8">
    <rdf:RDF>
      <cc:Work
         rdf:about="">
        <dc:format>image/svg+xml</dc:format>
        <dc:type
           rdf:resource="http://purl.org/dc/dcmitype/StillImage" />
      </cc:Work>
    </rdf:RDF>
  </metadata>
  <defs
     id="defs6" />
  <sodipodi:namedview
     pagecolor="#ffffff"
     bordercolor="#666666"
     borderopacity="1"
     objecttolerance="10"
     gridtolerance="10"
     guidetolerance="10"
     inkscape:pageopacity="0"
     inkscape:pageshadow="2"
     inkscape:window-width="1850"
     inkscape:window-height="1016"
     id="namedview4"
     showgrid="false"
     inkscape:zoom="1.3037281"
     inkscape:cx="190.60723"
     inkscape:cy="205.18082"
     inkscape:window-x="0"
     inkscape:window-y="0"
     inkscape:window-maximized="1"
     inkscape:current-layer="svg2"
     inkscape:pagecheckerboard="0" />
  <path
     style="opacity:1;fill:#0181e5;fill-opacity:1;stroke:#000000;stroke-width:1.32543;stroke-miterlimit:4;stroke-dasharray:none;stroke-opacity:0.0187793"
     d="m 381.66235,350.35128 c -27.99376,-2.55341 -52.7861,1.81153 -51.15241,-34.24188 1.30858,-28.87863 -5.37303,-64.18369 -11.56225,-80.23289 -11.62345,-30.14061 -31.10454,-52.37551 -55.64683,-63.22928 -15.87696,-7.02155 -16.16067,-3.31163 -38.16098,-3.37119 -24.4157,-0.0661 -34.5719,1.62646 -53.9443,11.27386 -10.1981,5.07862 -14.41208,13.12241 -24.71053,23.34425 -14.53038,14.4223 -19.66244,28.39694 -23.55807,40.4136 -3.02784,9.3398 -18.18756,9.95821 -20.85868,7.94342 -1.09042,-0.8225 -7.695604,-4.48495 -11.425715,-8.50211 l -12.854134,-7.76302 4.1444,-10.75049 c 1.456895,-3.77915 6.605916,-17.08231 10.962266,-26.76976 24.082853,-53.55444 52.691403,-80.55442 91.404973,-90.93953 30.7884,-8.259139 30.72803,-9.023678 64.84767,-7.02647 11.17039,2.02591 11.11794,-20.503235 0.034,-22.958186 -21.34797,-3.63062 -43.04865,2.459801 -56.65626,3.790433 -12.68529,-3.207469 -17.44863,-5.238317 -19.00396,-16.585632 -16.2569,-7.665274 -27.87295,4.911995 -43.94325,9.342743 -15.7967,5.948278 -43.518842,11.311699 -33.907105,-2.95701 9.224265,-13.926657 33.389395,-38.555307 46.441085,-44.964387 15.11072,-7.42018 49.7053,-14.25167 90.69231,-13.16215 29.17068,0.77542 45.47841,7.317996 59.30797,10.595386 2.32241,6.068241 -0.12037,15.914421 0.47553,23.81242 12.14049,8.983441 17.4225,12.333235 40.81268,27.275192 15.16088,9.9279 38.07411,27.216191 39.26274,30.961261 4.50651,21.36214 4.61505,30.787 6.28194,47.69121 1.10313,11.5774 5.86384,14.44385 13.94839,30.50988 5.40772,23.38194 13.67545,42.02824 20.24625,63.98632 1.78144,6.29623 -0.65976,27.96751 -1.07713,31.56536 -0.39151,3.37494 -0.039,22.60109 -2.16348,41.57381 -2.8774,20.99605 -14.73637,30.32585 -28.23707,29.37484 z"
     id="path1644"
     inkscape:connector-curvature="0"
     sodipodi:nodetypes="cssssssssscsssccccccsscccccccscc" />
  <path
     style="fill:#0181e4;fill-opacity:1;stroke:#000000;stroke-width:0.662715;stroke-miterlimit:4;stroke-dasharray:none;stroke-opacity:0.0187793"
     d="m 352.93067,53.167114 c -2.42573,-2.73249 -21.8066,-19.411202 -21.8066,-19.823212 0,-2.18445 25.91017,-1.165148 58.25788,15.172972 8.54637,4.316585 39.38671,22.799113 40.08455,24.537423 0.6102,1.51999 -0.66232,23.911866 -1.28441,36.238143 -3.46522,19.81246 -1.67795,22.6257 -24.74292,8.81866 -15.94199,-16.29869 -32.59331,-44.400514 -50.5085,-64.943986 z"
     id="path1952"
     inkscape:connector-curvature="0"
     sodipodi:nodetypes="csssccc" />
  <path
     style="opacity:1;fill:#fde500;fill-opacity:1;stroke:#000000;stroke-width:0.662715;stroke-miterlimit:4;stroke-dasharray:none;stroke-opacity:0.0187793"
     d="m 19.282362,132.71112 c -9.7761507,-18.6523 -7.385479,-30.86423 -6.908375,-39.919614 -1.147902,-9.4347 2.244826,-17.536567 7.385818,-24.790962 4.921368,-6.944486 39.3088,-24.611718 57.666321,-30.563493 19.952465,-6.468878 35.725814,-5.683135 39.180294,-5.190275 1.32557,0.18913 -15.81565,15.28947 -30.169266,30.27135 -21.33667,22.270584 -29.55111,30.848632 -41.77053,46.073934 -6.854416,16.29439 -7.148282,26.61979 -25.384262,24.11906 z"
     id="path1748"
     inkscape:connector-curvature="0"
     sodipodi:nodetypes="cccssscc" />
  <path
     style="opacity:1;fill:#f8048f;fill-opacity:1;stroke:#000000;stroke-width:1.32543;stroke-miterlimit:4;stroke-dasharray:none;stroke-opacity:0.0187793"
     d="m 39.648252,329.87012 c -0.94961,-2.08465 -2.889178,-21.60849 -4.707628,-44.81118 -1.81845,-23.20269 -3.709705,-50.58843 -5.033995,-64.08818 -1.32429,-13.49975 -3.424033,-45.62406 -1.969214,-53.53224 2.14477,-15.98032 14.568367,-29.77674 23.131492,-43.40892 27.644474,-44.008974 43.443458,-47.6472 74.516733,-63.72691 6.17477,-3.19531 18.33165,-7.97644 27.01529,-10.62474 8.68364,-2.6483 17.45168,-5.47913 19.48454,-6.29073 5.00692,-1.99898 5.65761,-0.54568 6.76193,15.1027 0.50906,7.21342 1.18641,13.37617 1.50522,13.69498 0.31883,0.31882 4.31563,-0.15884 8.88179,-1.06146 14.69851,-2.90553 46.18689,-2.17953 68.13056,1.57084 10.96854,1.87462 20.01865,3.51691 20.11134,3.64954 0.12993,0.1858 -3.69128,31.80028 -3.94607,32.64818 -0.0317,0.10545 -16.79807,-0.1602 -37.25863,-0.59033 -34.44985,-0.72422 -38.06657,-0.54396 -48.90507,2.43745 -32.81516,9.02668 -57.87795,29.37444 -76.98639,62.50305 -9.59169,16.62927 -23.204185,45.55684 -26.153555,55.57827 l -2.39378,8.13363 7.22781,3.11315 c 3.9753,1.71222 9.56697,4.09718 12.425955,5.29989 5.18045,2.17932 12.51371,2.14051 11.55087,10.15647 -0.53138,4.42385 -1.52377,15.34055 -2.7496,33.31253 l -2.55832,37.50751 -3.34747,9.87861 c -2.16274,6.38241 -6.317056,9.59047 -21.152966,10.55452 -10.80642,0.93864 -25.515047,3.66435 -33.998945,-1.8832 -2.343024,-2.1873 -8.337562,-12.56459 -9.581897,-15.12343 z"
     id="path1642"
     inkscape:connector-curvature="0"
     sodipodi:nodetypes="cssccssssssscssssscsssscsccc" />
  <path
     style="opacity:1;fill:#29c63c;fill-opacity:1;stroke:#000000;stroke-width:1.32543;stroke-miterlimit:4;stroke-dasharray:none;stroke-opacity:0.0187793"
     d="m 407.86578,255.90638 c -0.43121,-1.54012 -4.54906,-16.15634 -6.33575,-21.31301 -10.3016,-29.73211 -27.99428,-66.25908 -41.99945,-83.05834 l -6.37228,-7.64357 8.14952,-14.8329 c 9.4043,-17.11669 10.76999,-16.57491 -6.48666,-30.9454 -21.43179,-17.84735 -37.98496,-27.35791 -65.4416,-37.59922 -5.26329,-1.9632 -6.65286,-6.19549 -6.68568,-20.36295 -0.0195,-8.39246 0.24765,-14.673854 10.40633,-10.319334 23.39465,10.02812 64.02502,45.768887 86.74215,74.355994 15.79484,19.87613 37.00387,49.81013 37.44896,55.64979 1.01349,13.29717 -1.31295,27.04817 -2.24538,37.93917 -1.30948,15.29513 -3.40108,28.21239 -5.21618,40.12122 -2.24775,14.74743 -0.61821,22.81515 -1.96398,18.00855 z"
     id="path1646"
     inkscape:connector-curvature="0"
     sodipodi:nodetypes="ssscssscssssss" />
  <path
     style="opacity:1;fill:#00193b;fill-opacity:1;stroke:#000000;stroke-width:1.32543;stroke-miterlimit:4;stroke-dasharray:none;stroke-opacity:0.0187793"
     d="m 37.462515,360.00295 c -4.38729,-2.84094 -7.72928,-6.72362 -10.23337,-11.88898 -3.79453,-7.82723 -5.00607,-18.05884 -11.44394,-96.64592 -0.89855,-10.96854 -2.28863,-27.19125 -3.08908,-36.05046 -0.80044,-8.85921 -2.20435,-24.73675 -3.1197998,-35.28343 -0.91545,-10.54668 -3.35248,-36.91617 -5.41562,-58.59887 C -0.36227484,74.00062 -0.39059484,71.77984 3.4460752,65.48733 13.166635,49.54466 64.853885,24.8266 113.16312,13.01807 146.22571,4.9363704 185.37372,0.64661035 225.91669,0.66276035 c 39.76593,0.0158 77.54046,4.73334005 112.75357,14.08132965 14.58979,3.87313 47.26125,15.40965 59.24354,20.91928 17.45871,8.0278 38.09091,21.89574 42.63401,28.65647 4.06202,6.04484 4.0962,6.71071 1.69323,32.97496 -0.88774,9.70295 -2.61948,29.3773 -3.8483,43.72078 -1.22883,14.34348 -2.93291,32.29201 -3.78688,39.88561 -0.85395,7.59361 -2.60738,26.57763 -3.89648,42.18671 -1.28912,15.60909 -3.02373,35.28343 -3.85469,43.72077 -0.83097,8.43735 -2.22476,24.31489 -3.0973,35.28343 -3.03382,38.13731 -5.19503,47.05788 -13.26313,54.74513 -8.25096,7.86147 -16.78683,8.86782 -48.93014,5.7687 -21.61905,-2.08442 -31.42528,-6.50174 -38.48191,-17.33456 -6.78112,-10.40992 -8.18591,-20.61596 -7.15321,-51.96953 1.0645,-32.31884 -0.22099,-40.10692 -9.81698,-59.4755 -20.75296,-41.88788 -64.28172,-62.11864 -108.67007,-50.50636 -17.00316,4.44814 -25.71283,9.53426 -39.14971,22.86201 -12.53527,12.43343 -20.84081,25.19936 -26.24853,40.34489 -3.12634,8.75603 -3.41844,12.45424 -3.54064,44.82679 -0.15674,41.52743 -1.46533,47.45914 -13.03885,59.10386 -8.33315,8.38438 -13.58934,10.12063 -36.878485,12.18186 -28.57513,2.52906 -33.6484,2.2038 -41.12322,-2.63644 z m 40.85765,-18.20988 c 27.415495,-1.85025 27.939675,-2.73364 27.939675,-47.08571 0,-18.06702 0.70079,-36.56758 1.55731,-41.11235 3.74785,-19.88635 16.01702,-41.95548 33.48292,-60.22723 30.44754,-31.85236 79.51232,-41.73062 125.26927,-25.22058 21.3697,7.71063 45.07296,30.23695 57.27423,54.43037 12.44764,24.68195 14.96224,38.8425 13.50047,76.02563 -1.44256,36.69399 0.61126,40.35644 23.98329,42.76791 21.74515,2.24361 33.21596,2.15654 35.58908,-0.27015 1.87017,-1.91238 6.1761,-33.17792 9.38654,-68.15604 0.3872,-4.21867 2.07838,-22.85752 3.75818,-41.41968 1.6798,-18.56215 3.82483,-41.40599 4.76676,-50.76409 0.88389,-15.86857 1.8927,-16.68939 -6.9223,-32.611 C 388.11459,112.40375 352.20028,71.673714 318.3576,45.704324 297.28485,29.173212 283.96046,25.052023 259.17154,22.17962 c -14.79592,-1.9579 -53.9258,-2.02175 -72.02345,-0.11751 -16.20576,1.70517 -27.61024,6.75489 -52.33815,23.17447 -12.74717,8.46425 -22.55817,16.94268 -41.419225,35.79353 -25.54034,25.52654 -35.94899,38.78242 -54.93965,69.96809 -9.62294,15.80238 -10.23593,17.34981 -9.57087,24.1604 3.71116,38.00469 5.8017,61.91196 9.08733,103.92257 2.11162,26.9995 4.5778,51.73019 5.48041,54.95709 1.8774,6.71187 8.53248,10.73986 15.69645,9.50026 2.3516,-0.40692 10.9807,-1.19236 19.17578,-1.74544 z M 35.227825,115.52823 c 15.88508,-23.52819 36.60483,-46.36558 61.44413,-67.72395 6.960805,-5.98533 12.656015,-11.41302 12.656015,-12.06154 0,-2.42536 -33.342375,9.12795 -51.391085,17.80728 -5.90614,2.84017 -16.77881,9.0831 -24.16148,13.87319 -15.1934,9.8579 -14.77815,8.80761 -11.93717,30.19245 0.81723,6.15153 1.9024,15.154 2.41148,20.00547 0.50908,4.85147 1.52952,8.82086 2.26764,8.82086 0.73812,0 4.65783,-4.9112 8.71047,-10.91376 z m 387.048825,0.41396 c 0,-4.08741 0.44657,-14.73025 0.99237,-23.65074 l 0.99237,-16.21907 -7.23953,-5.11292 c -10.25838,-7.24498 -25.49062,-15.18077 -41.53411,-21.63869 -17.4479,-7.02324 -36.39314,-13.55713 -37.14096,-12.8093 -0.31519,0.31519 4.11578,4.18819 9.84661,8.60667 16.21072,12.49853 46.09159,43.57738 59.38374,61.76455 6.62895,9.07015 12.64816,16.49117 13.37606,16.49117 0.7279,0 1.32345,-3.34425 1.32345,-7.43167 z"
     id="path1638"
     inkscape:connector-curvature="0"
     sodipodi:nodetypes="sssssssssssssssssssssssssssssssssssssssssccccssssssssssssssssssssscsssssss" />
  <path
     style="opacity:1;fill:#00193b;fill-opacity:1;stroke:#000000;stroke-width:1.3254298;stroke-miterlimit:4;stroke-dasharray:none;stroke-opacity:0.01877932"
     d="m 156.91586,162.10893 c -2.51672,-4.00774 -4.58897,-8.14103 -4.605,-9.18509 -0.0365,-2.37361 18.71071,-11.91684 32.9065,-16.75102 22.00101,-7.49215 50.31343,-7.62347 71.95265,-0.33374 13.04565,4.39476 30.55701,12.93902 33.75048,16.46777 2.6139,2.88833 2.59543,3.04367 -0.47798,4.01913 -1.75834,0.55808 -4.24263,3.03674 -5.52064,5.50815 -1.27802,2.47141 -3.30718,4.49347 -4.50926,4.49347 -1.20207,0 -8.79004,-2.39071 -16.86215,-5.3127 -16.61818,-6.01553 -34.3621,-10.04063 -44.08886,-10.00128 -11.5254,0.0466 -26.98337,4.23308 -42.13933,11.41253 -8.09211,3.83327 -14.96439,6.96958 -15.27174,6.96958 -0.30735,0 -2.61795,-3.27906 -5.13467,-7.2868 z"
     id="path1650"
     inkscape:connector-curvature="0" />
  <path
     style="opacity:1;fill:#00193b;fill-opacity:1;stroke:#000000;stroke-width:1.3254298;stroke-miterlimit:4;stroke-dasharray:none;stroke-opacity:0.01877932"
     d="m 77.879695,438.62364 v -32.21531 h 7.60827 7.60827 l 0.44555,12.65601 0.44556,12.65602 11.121955,0.45072 11.12195,0.45072 v -13.10674 -13.10673 h 8.43734 8.43734 v 32.21531 32.2153 h -8.43734 -8.43734 v -12.2725 -12.27249 H 104.72578 93.220315 v 12.27249 12.2725 h -7.67031 -7.67031 z"
     id="path1652"
     inkscape:connector-curvature="0" />
  <path
     style="opacity:1;fill:#00193b;fill-opacity:1;stroke:#000000;stroke-width:1.3254298;stroke-miterlimit:4;stroke-dasharray:none;stroke-opacity:0.01877932"
     d="m 168.38936,438.62364 v -32.21531 h 23.86617 23.86617 l -0.47172,6.51976 -0.47172,6.51977 -15.81348,0.43817 -15.81349,0.43816 0.47287,5.69808 0.47286,5.69809 14.19007,0.44108 14.19008,0.44108 v 6.84571 6.84572 h -14.6662 -14.66619 l 0.47612,5.75273 0.47612,5.75273 15.72413,0.43718 15.72414,0.43719 v 6.08258 6.08258 h -23.77796 -23.77797 z"
     id="path1654"
     inkscape:connector-curvature="0" />
  <path
     style="opacity:1;fill:#00193b;fill-opacity:1;stroke:#000000;stroke-width:1.3254298;stroke-miterlimit:4;stroke-dasharray:none;stroke-opacity:0.01877932"
     d="m 249.69466,438.62364 v -32.21531 h 17.45437 c 20.02637,0 25.70068,1.69905 32.84353,9.83431 7.89682,8.99398 8.83204,31.81018 1.77211,43.23338 -5.48917,8.88168 -12.72441,11.28938 -34.04478,11.32923 l -18.02523,0.0337 z m 37.24157,15.59835 c 4.87864,-4.87865 5.59643,-22.03493 1.21421,-29.0214 -3.00743,-4.79467 -3.51017,-4.9857 -13.12121,-4.9857 h -9.99395 v 18.15307 c 0,9.98419 0.51775,18.67989 1.15055,19.32378 2.39371,2.43567 17.34504,-0.0644 20.7504,-3.46975 z"
     id="path1656"
     inkscape:connector-curvature="0" />
  <path
     style="opacity:1;fill:#00193b;fill-opacity:1;stroke:#000000;stroke-width:1.3254298;stroke-miterlimit:4;stroke-dasharray:none;stroke-opacity:0.01877932"
     d="m 338.67027,438.62364 v -32.21531 h 7.67031 7.67031 v 32.21531 32.2153 h -7.67031 -7.67031 z"
     id="path1658"
     inkscape:connector-curvature="0" />
  <path
     style="opacity:1;fill:#29c63c;fill-opacity:1;stroke:#000000;stroke-width:0.6627149;stroke-miterlimit:4;stroke-dasharray:none;stroke-opacity:0.01877932"
     d=""
     id="path1872"
     inkscape:connector-curvature="0" />
  <path
     style="opacity:1;fill:#0181e5;fill-opacity:1;stroke:#000000;stroke-width:0.08283936;stroke-miterlimit:4;stroke-dasharray:none;stroke-opacity:0.01877932"
     d=""
     id="path1974"
     inkscape:connector-curvature="0" />
  <path
     style="opacity:1;fill:#f8048f;fill-opacity:1;stroke:#000000;stroke-width:0.05857627;stroke-miterlimit:4;stroke-dasharray:none;stroke-opacity:0.01877932"
     d="m 108.44577,70.14111 c 0.078,-0.14959 0.21888,-0.33264 0.31314,-0.40678 0.17409,-0.13695 0.45604,-0.18017 0.51829,-0.0795 0.0299,0.0483 -0.84933,0.7582 -0.93909,0.7582 -0.0188,0 0.0297,-0.12239 0.10766,-0.27197 z"
     id="path2020"
     inkscape:connector-curvature="0" />
</svg>
